PathFileType	4	(X/Y/Z)	C:/Users/beibeiliu/ov580/test_trc/capture2\sequence.19_training_dense_left.trc
DataRate	CameraRate	NumFrames	NumMarkers	Units	OrigDataRate	OrigDataStartFrame	OrigNumFrames
120	120	16	19	mm	120	44	351
Frame#	Time	ThumbCMC			ThumbMCP			ThumbIP			ThumbTip			IndexMCP			IndexPIP			IndexTip			MiddleMCP			MiddlePIP			MiddleTip			RingMCP			RingPIP			RingTip			PinkyMCP			PinkyPIP			PinkyTip			BackHand1			BackHand2			BackHand3	
		X0	Y0	Z0	X1	Y1	Z1	X2	Y2	Z2	X3	Y3	Z3	X4	Y4	Z4	X5	Y5	Z5	X6	Y6	Z6	X7	Y7	Z7	X8	Y8	Z8	X9	Y9	Z9	X10	Y10	Z10	X11	Y11	Z11	X12	Y12	Z12	X13	Y13	Z13	X14	Y14	Z14	X15	Y15	Z15	X16	Y16	Z16	X17	Y17	Z17	X18	Y18	Z18	
43	0.358333	-185.938	109.358	10.1736	-173.317	132.17	-3.6675	-166.946	149.746	-21.4604	-152.647	158.768	-45.4768	-176.437	91.0268	-64.3382	-166.728	105.279	-87.5255	-140.701	122.948	-90.3766	-160.852	77.0459	-67.5456	-144.024	97.1715	-91.4444	-121.674	119.796	-82.4013	-145.363	67.7563	-65.3892	-128.16	82.6671	-82.2546	-109.935	111.208	-72.2775	-131.585	59.4639	-52.3707	-115.241	72.7716	-69.6665	-103.081	97.9045	-73.4018	-163.715	52.5748	-15.6105	-165.566	45.6696	15.348	-189.265	71.7723	0.253765	
44	0.366667	-185.842	101.505	11.0121	-179.175	131.331	-4.01738	-174.26	149.633	-27.9517	-159.998	152.604	-46.6616	-178.93	87.2588	-62.5588	-166.698	98.0007	-87.4277	-141.752	121.225	-89.9404	-162.04	74.7472	-66.1366	-144.323	89.3125	-89.2234	-124.86	120.286	-83.4351	-141.375	64.89	-64.7838	-126.642	81.3941	-81.4052	-111.805	112.283	-71.8029	-128.267	57.9491	-46.3504	-111.669	74.9903	-68.8476	-105.502	103.999	-72.2857	-159.199	49.9068	-11.9156	-165.561	47.3538	15.5988	-188.867	66.8269	-3.14751	
45	0.375	-188.981	99.7173	8.7903	-182.553	127.2	-7.50425	-178.299	142.27	-25.1087	-169.42	151.334	-44.7098	-180.292	81.9932	-63.5076	-168.579	96.395	-88.3433	-148.199	119.112	-91.5089	-160.625	71.6677	-69.1187	-141.442	90.0075	-89.4423	-128.011	118.68	-84.7604	-144.635	64.4943	-62.1537	-128.6	81.2809	-80.5911	-116.533	115.307	-71.8125	-124.936	58.0668	-49.8802	-110.572	73.9374	-67.2169	-105.667	101.065	-73.3514	-153.779	45.9211	-10.0595	-163.564	43.7912	18.6523	-186.22	62.0039	0.114182	
46	0.383333	-192.609	96.9899	6.36592	-187.892	125.202	-5.93501	-183.914	139.757	-26.3872	-170.291	146.603	-49.1755	-182.372	77.9338	-62.1928	-171.193	89.372	-87.5038	-149.871	114.425	-91.717	-163.442	69.1648	-69.051	-146.941	90.0159	-91.3771	-132.184	117.728	-85.2421	-139.71	60.6375	-60.2691	-130.433	82.1413	-81.6593	-118.261	112.519	-74.353	-124.373	58.107	-50.2122	-115.112	72.017	-67.0754	-108.712	101.108	-72.2261	-155.916	46.4723	-12.0528	-159.222	42.9756	19.3985	-186.22	59.6679	-0.0747427	
47	0.391667	-193.387	95.3993	8.76535	-185.795	119.586	-7.13445	-188.895	140.065	-28.9228	-178.663	148.604	-48.6802	-182.581	75.2849	-64.8107	-175.071	88.0109	-86.7435	-156.816	114.752	-94.2323	-162.528	66.099	-65.5055	-146.804	84.8913	-90.2091	-136.131	118.2	-86.0562	-140.137	61.9242	-63.7844	-131.37	82.0583	-81.1037	-121.589	114.471	-74.8495	-126.258	59.0224	-46.9375	-113.989	75.5192	-67.7713	-111.304	105.362	-72.7743	-152.933	46.4314	-8.35158	-159.932	41.717	16.0565	-186.065	56.0269	0.166895	
48	0.4	-193.105	90.9246	12.1947	-188.081	117.033	-5.05903	-192.758	137.243	-27.2387	-178.835	142.703	-49.2931	-183.368	72.5058	-62.0827	-172.963	85.7013	-87.3396	-157.431	111.957	-93.6861	-160.575	64.5668	-65.1154	-151.098	86.42	-90.4894	-140.37	119.843	-84.8376	-143.677	62.7639	-59.5796	-127.936	83.4109	-81.1437	-128.45	116.845	-73.584	-123.118	58.7298	-49.8021	-115.926	78.133	-69.8525	-113.128	103.29	-74.2858	-150.608	43.7407	-8.32324	-155.352	41.3235	15.8233	-180.864	52.2199	2.35186	
49	0.408333	-195.697	91.4319	9.54068	-190.88	114.491	-4.60379	-193.231	132.45	-26.0874	-184.155	142.442	-49.2668	-182.393	71.0716	-63.2848	-174.763	87.1399	-87.5846	-161.857	111.739	-93.2728	-161.751	63.7512	-66.5041	-149.991	83.9705	-88.862	-137.228	119.009	-82.9018	-141.062	60.8692	-61.0306	-131.775	84.3785	-81.4679	-126.052	115.129	-75.1922	-127.25	59.783	-43.5044	-118.885	75.4334	-68.0466	-112.58	106.557	-75.5633	-150.606	43.3416	-11.0681	-155.806	42.6209	18.2638	-181.386	52.2527	1.58542	
50	0.416667	-194.34	87.8527	15.1885	-193.375	113.715	-4.62414	-194.69	130.129	-24.264	-189.786	142.475	-47.28	-185.115	70.6509	-57.852	-173.053	83.7159	-86.7124	-164.441	109.423	-93.6644	-161.277	63.1893	-64.9206	-150.981	83.2301	-89.0743	-140.272	115.017	-84.6232	-142.786	60.1212	-58.5542	-130.459	83.5823	-81.3632	-129.32	116.407	-73.9578	-124.084	60.0781	-47.757	-114.521	75.0326	-67.9662	-116.247	103.346	-76.1257	-149.259	43.2054	-8.03812	-151.359	38.9132	18.002	-179.751	49.8232	2.06395	
51	0.425	-194.24	86.6875	16.1921	-196.467	113.937	-1.02761	-195.71	128.492	-23.1572	-189.682	140.54	-49.0374	-182.84	67.9406	-59.3133	-175.756	82.6231	-85.3203	-162.69	111.067	-92.1816	-162.125	62.3478	-64.0183	-155.819	80.1672	-88.4033	-141.953	118.713	-82.5948	-144.518	60.2749	-59.4784	-135.29	82.3798	-81.5326	-129.215	112.251	-74.9977	-121.46	58.796	-44.4888	-116.488	78.1992	-69.1484	-120.113	105.221	-73.4249	-149.197	44.1472	-9.23129	-147.877	39.5595	19.8973	-181.035	48.8702	2.16909	
52	0.433333	-191.009	82.3895	12.85	-193.805	108.421	-0.465244	-199.311	128.046	-28.2934	-189.891	137.145	-48.1383	-180.13	64.6908	-57.5371	-173.998	78.902	-84.1881	-161.982	108.346	-90.2688	-159.396	59.5701	-67.4589	-155.218	78.8163	-88.7227	-148.111	115.09	-84.1776	-138.956	57.7737	-56.9439	-134.893	79.8398	-80.6737	-131.134	112.469	-73.621	-120.882	58.7759	-45.6917	-116.513	78.3319	-68.7468	-117.309	109.357	-73.9679	-147.467	44.0133	-9.86982	-146.308	36.5669	22.4894	-179.51	47.2619	0.787162	
53	0.441667	-192.443	81.8162	15.5139	-195.714	108.444	-5.62873	-199.274	126.17	-27.5991	-189.568	134.055	-46.5255	-180.426	62.1992	-56.8675	-174.863	77.4737	-84.8936	-165.616	103.296	-91.5749	-163.051	58.8371	-67.1854	-153.462	80.0092	-89.7805	-145.541	113.081	-84.0791	-143.563	57.159	-59.8442	-133.356	76.9619	-80.0521	-133.762	108.113	-76.5744	-124.128	57.259	-45.7426	-119.128	75.4983	-69.1127	-119.639	104.308	-74.8861	-144.053	39.0211	-5.77596	-146.874	36.2705	20.63	-179.537	45.9021	0.996848	
54	0.45	-192.409	80.6126	10.7145	-193.745	105.447	-3.61214	-197.892	123.441	-26.9395	-188.719	131.881	-46.6881	-179.954	60.0684	-58.1056	-173.628	76.7719	-87.2918	-164.182	101.281	-92.0467	-158.462	54.7208	-65.2214	-153.389	78.0978	-89.4971	-146.411	111.607	-84.9276	-138.843	54.0835	-58.4733	-130.631	77.1549	-81.3886	-133.267	106.457	-75.6908	-122.842	55.321	-48.9693	-117.752	73.0052	-69.6382	-120.857	102.062	-73.158	-144.37	37.477	-8.52532	-144.374	36.3663	21.8451	-178.149	46.0733	2.63087	
55	0.458333	-188.882	78.7123	12.1556	-193.341	105.638	-5.96145	-194.025	119.965	-26.667	-190.482	132.635	-49.6681	-178.769	57.8426	-55.8998	-172.527	72.8427	-84.6317	-162.138	100.125	-91.6413	-161.02	53.4517	-64.9813	-154.377	75.0147	-90.4746	-143.324	105.515	-86.59	-142.629	51.8941	-56.9681	-131.948	76.1672	-82.5988	-132.207	104.765	-76.2104	-121.365	51.7269	-47.2658	-118.166	67.7154	-69.0561	-117.816	102.549	-73.1273	-146.881	37.9413	-7.61302	-148.294	34.7194	19.4261	-177.38	41.7771	5.46812	
56	0.466667	-190.704	77.8876	10.6668	-194.178	104.242	-5.45225	-197.626	120.164	-27.3135	-191.611	130.273	-47.8794	-180.823	56.6717	-58.5113	-175.409	71.0779	-84.678	-165.114	96.6772	-92.8365	-160.506	51.7284	-66.6735	-151.218	73.9872	-89.5579	-141.71	107.04	-84.3746	-141.399	50.5612	-56.6397	-131.681	74.0551	-81.6202	-134.205	104.927	-75.1044	-123.694	50.8327	-43.5333	-117.351	64.5453	-68.1795	-116.51	97.9977	-74.3738	-143.12	34.5342	-11.3687	-145.419	30.9847	22.3802	-178.111	43.3184	1.88184	
57	0.475	-188.438	75.8923	14.8671	-191.187	100.44	-3.27144	-192.594	116.274	-28.5228	-187.617	125.614	-47.9327	-180.19	56.6036	-60.2608	-171.817	69.912	-84.482	-162.979	97.5645	-91.9379	-158.581	49.525	-65.4258	-151.163	67.6881	-87.9857	-142.465	106.067	-83.9082	-141.119	49.337	-60.9644	-134.124	70.3651	-82.2714	-132.71	99.5891	-77.3809	-121.381	49.2809	-44.3948	-113.798	66.4218	-69.8242	-114.472	94.9492	-76.6952	-142.373	35.6359	-7.42484	-149.152	31.7597	21.0827	-176.114	40.3767	4.86154	
58	0.483333	-191.348	76.3907	15.3942	-189.836	100.139	-3.97576	-194.113	115.404	-24.5614	-187.667	125.479	-49.3471	-179.121	54.5459	-56.8991	-172.054	67.0276	-83.5911	-160.284	98.1999	-92.3698	-157.427	48.2842	-62.3721	-149.615	71.0123	-88.8746	-142.874	104.755	-84.887	-139.307	46.9576	-56.915	-131.336	68.948	-81.2485	-131.28	97.6728	-78.0587	-120.043	47.6205	-44.8853	-115.828	62.9283	-68.4368	-116.229	95.049	-75.7777	-146.178	34.822	-9.90459	-145.917	31.0322	22.7227	-174.804	38.8067	3.37363	
